<svg width="27" height="13" viewBox="0 0 27 13" fill="none" xmlns="http://www.w3.org/2000/svg">
<g opacity="0.5">
<path fill-rule="evenodd" clip-rule="evenodd" d="M0 3.0566C0 1.36849 1.36849 0 3.0566 0H21.3962C23.0843 0 24.4528 1.36849 24.4528 3.0566V9.67925C24.4528 11.3674 23.0843 12.7358 21.3962 12.7358H3.0566C1.36849 12.7358 0 11.3674 0 9.67925V3.0566ZM3.0566 1.01887C1.93119 1.01887 1.01887 1.93119 1.01887 3.0566V9.67925C1.01887 10.8047 1.93119 11.717 3.0566 11.717H21.3962C22.5216 11.717 23.434 10.8047 23.434 9.67925V3.0566C23.434 1.93119 22.5216 1.01887 21.3962 1.01887H3.0566Z" fill="black"/>
<path d="M25.4717 8.70313C26.3713 8.31008 27 7.41241 27 6.36791C27 5.32341 26.3713 4.42574 25.4717 4.03269V8.70313Z" fill="black"/>
</g>
</svg>
