<svg width="16" height="5" viewBox="0 0 16 5" fill="none" xmlns="http://www.w3.org/2000/svg">
<path opacity="0.2" d="M8.00044 2.38827C10.3219 2.38837 12.5546 3.28128 14.2371 4.88246C14.3638 5.00608 14.5663 5.00452 14.691 4.87896L15.9021 3.65546C15.9653 3.59178 16.0005 3.50552 16 3.41577C15.9995 3.32603 15.9632 3.24019 15.8993 3.17725C11.4834 -1.05908 4.51678 -1.05908 0.100859 3.17725C0.0368916 3.24014 0.000597157 3.32595 7.30289e-06 3.4157C-0.000582551 3.50545 0.0345808 3.59174 0.0977163 3.65546L1.30914 4.87896C1.43384 5.00471 1.6365 5.00627 1.76312 4.88246C3.44579 3.28118 5.67875 2.38826 8.00044 2.38827Z" fill="black"/>
</svg>
