<svg width="11" height="4" viewBox="0 0 11 4" fill="none" xmlns="http://www.w3.org/2000/svg">
<path d="M5.46861 2.50847C6.80735 2.50839 8.09832 3.0065 9.09066 3.90601C9.22488 4.03368 9.43631 4.03091 9.56715 3.89978L10.8368 2.61561C10.9037 2.54825 10.9408 2.45688 10.9398 2.36192C10.9388 2.26697 10.8999 2.17637 10.8317 2.11038C7.80979 -0.703461 3.13001 -0.703461 0.108117 2.11038C0.0398568 2.17637 0.000911605 2.26701 1.58e-05 2.362C-0.000880005 2.45698 0.0363486 2.54835 0.103352 2.61561L1.37264 3.89978C1.50348 4.03091 1.71491 4.03368 1.84913 3.90601C2.84082 3.0071 4.13076 2.50903 5.46861 2.50847Z" fill="black"/>
</svg>
